<svg width="70" height="77" viewBox="0 0 70 77" fill="none" xmlns="http://www.w3.org/2000/svg">
<path d="M0.00025336 74.0017L4.7936 70.9444L5.18732 76.7123L0.00025336 74.0017ZM46.5325 13.6604L46.1827 13.2917L46.5325 13.6604ZM4.39057 73.353C6.97555 72.9076 9.83647 71.8711 12.0164 70.1365C14.1849 68.4111 15.6665 66.0101 15.5772 62.7922L16.5772 62.798C16.6767 66.3866 15.0065 69.0559 12.6554 70.9266C10.3158 72.7882 7.2895 73.8736 4.5925 74.3383L4.39057 73.353ZM15.5772 62.7922C15.4255 57.3267 12.2266 53.5106 10.4909 50.5501C10.0642 49.8223 9.7132 49.1201 9.55324 48.4563C9.38932 47.7761 9.42017 47.1082 9.79057 46.4971C10.1501 45.9039 10.7906 45.4304 11.7012 45.0331C12.6154 44.6342 13.8493 44.2917 15.461 43.9898L15.677 44.9725C14.0983 45.2683 12.9456 45.5942 12.127 45.9514C11.3048 46.3102 10.8663 46.6804 10.6509 47.0358C10.4463 47.3732 10.4062 47.7586 10.5254 48.2533C10.6486 48.7645 10.9349 49.359 11.3497 50.0666C12.9803 52.8478 16.4161 56.9933 16.5772 62.798L15.5772 62.7922ZM15.461 43.9898C21.8666 42.7897 27.9258 42.642 32.393 42.1892C34.6493 41.9606 36.4796 41.657 37.7979 41.1263C39.1027 40.6009 39.8224 39.8899 40.0234 38.8788L41.0049 39.105C40.7164 40.5559 39.6685 41.4633 38.1982 42.0553C36.7415 42.6418 34.7894 42.9545 32.5269 43.1838C27.9566 43.647 22.0325 43.7818 15.677 44.9725L15.461 43.9898ZM40.0234 38.8788C40.2308 37.8354 39.7939 36.7562 39.112 35.3367C38.451 33.9608 37.5974 32.3293 37.2488 30.354C36.5389 26.3305 37.9355 21.0757 46.1827 13.2917L46.8824 14.0292C38.7321 21.7218 37.6089 26.6706 38.2339 30.2126C38.5528 32.02 39.3303 33.5117 40.0111 34.9289C40.671 36.3025 41.2869 37.6863 41.0049 39.105L40.0234 38.8788ZM46.1827 13.2917C48.9011 10.7259 51.3037 8.27463 54.6542 6.039C58.0138 3.79728 62.314 1.77807 68.8548 0.017083L69.145 0.982918C62.6858 2.72193 58.486 4.70269 55.2288 6.87608C51.9625 9.05555 49.6314 11.4345 46.8824 14.0292L46.1827 13.2917Z" fill="black"/>
</svg>
